<svg xmlns="http://www.w3.org/2000/svg" xmlns:xlink="http://www.w3.org/1999/xlink" width="48" viewBox="0 0 48 48" height="48" version="1.0"><defs><linearGradient id="m"><stop offset="0" style="stop-color:#fce94f;stop-opacity:1"/><stop style="stop-color:#fce94f;stop-opacity:1" offset=".5"/><stop offset=".75" style="stop-color:#edd400;stop-opacity:1"/><stop offset="1" style="stop-color:#c4a000;stop-opacity:1"/></linearGradient><linearGradient id="k"><stop offset="0" style="stop-color:#fff;stop-opacity:1"/><stop style="stop-color:#edd400;stop-opacity:1" offset=".749"/><stop offset="1" style="stop-color:#fff;stop-opacity:1"/></linearGradient><linearGradient id="j"><stop style="stop-color:#800080;stop-opacity:1" offset="0"/><stop style="stop-color:#eeeeec;stop-opacity:1" offset="1"/></linearGradient><linearGradient id="b"><stop offset="0" style="stop-color:#fef8c4;stop-opacity:1"/><stop offset="1" style="stop-color:#edd400;stop-opacity:1"/></linearGradient><linearGradient id="h"><stop style="stop-color:#fff;stop-opacity:1" offset="0"/><stop style="stop-color:#fff;stop-opacity:0" offset="1"/></linearGradient><linearGradient id="g"><stop style="stop-color:#ff6c6c;stop-opacity:1" offset="0"/><stop style="stop-color:#c00;stop-opacity:1" offset="1"/></linearGradient><linearGradient id="d"><stop offset="0" style="stop-color:#fff5ac;stop-opacity:1"/><stop offset="1" style="stop-color:#edd400;stop-opacity:1"/></linearGradient><linearGradient id="f"><stop style="stop-color:#000;stop-opacity:1" offset="0"/><stop style="stop-color:#000;stop-opacity:0" offset="1"/></linearGradient><linearGradient id="e"><stop style="stop-color:#fff;stop-opacity:1" offset="0"/><stop style="stop-color:#fff;stop-opacity:0" offset="1"/></linearGradient><linearGradient id="c"><stop style="stop-color:#000;stop-opacity:1" offset="0"/><stop style="stop-color:#000;stop-opacity:0" offset="1"/></linearGradient><linearGradient id="i"><stop style="stop-color:#fff;stop-opacity:1" offset="0"/><stop style="stop-color:#fce94f;stop-opacity:1" offset="1"/></linearGradient><linearGradient id="a"><stop style="stop-color:#fff;stop-opacity:1" offset="0"/><stop style="stop-color:#fce94f;stop-opacity:1" offset="1"/></linearGradient><linearGradient id="l"><stop style="stop-color:#c4a000;stop-opacity:1" offset="0"/><stop offset=".206" style="stop-color:#edd400;stop-opacity:1"/><stop offset=".5" style="stop-color:#fce94f;stop-opacity:1"/><stop style="stop-color:#edd400;stop-opacity:1" offset=".75"/><stop style="stop-color:#c4a000;stop-opacity:1" offset="1"/></linearGradient><linearGradient xlink:href="#b" id="p" x1="21" y1="37.678" x2="42.231" y2="54.18" gradientUnits="userSpaceOnUse" gradientTransform="matrix(2.25 0 0 1.27262 -31 -8.95)"/><linearGradient xlink:href="#h" id="H" gradientUnits="userSpaceOnUse" gradientTransform="matrix(.33333 0 0 .83333 6.333 4.075)" x1="21" y1="26" x2="25" y2="31"/><linearGradient xlink:href="#h" id="J" gradientUnits="userSpaceOnUse" gradientTransform="matrix(.33333 0 0 .83333 24.333 4.167)" x1="21" y1="26" x2="25" y2="31"/><linearGradient xlink:href="#i" id="u" x1="12" y1="14" x2="44.565" y2="47.688" gradientUnits="userSpaceOnUse" gradientTransform="matrix(.92 0 0 .88889 0 1.611)"/><linearGradient xlink:href="#h" id="F" gradientUnits="userSpaceOnUse" gradientTransform="matrix(.55556 0 0 1.11111 10.222 -.611)" x1="21" y1="26" x2="25" y2="31"/><linearGradient xlink:href="#k" id="z" x1="40.036" y1="12.359" x2="41.661" y2="35.395" gradientUnits="userSpaceOnUse" gradientTransform="translate(.179 .179)"/><linearGradient xlink:href="#l" id="r" x1="3" y1="27" x2="39" y2="28" gradientUnits="userSpaceOnUse"/><linearGradient xlink:href="#m" id="o" x1="8" y1="39" x2="38" y2="39" gradientUnits="userSpaceOnUse"/><radialGradient xlink:href="#a" id="y" cx="23.078" cy="12.744" fx="23.078" fy="12.744" r="3.5" gradientTransform="matrix(1.09967 -2.63922 -1.875 -2 19.432 98.396)" gradientUnits="userSpaceOnUse"/><radialGradient xlink:href="#c" id="w" cx="23.5" cy="19.5" fx="23.5" fy="19.5" r="14.5" gradientTransform="matrix(.31034 0 0 .13793 16.207 15.31)" gradientUnits="userSpaceOnUse"/><radialGradient xlink:href="#d" id="x" cx="21.625" cy="16.75" fx="21.625" fy="16.75" r="5.5" gradientTransform="matrix(.7 0 0 -.72727 6.55 25.182)" gradientUnits="userSpaceOnUse"/><radialGradient xlink:href="#e" id="t" cx="10.451" cy="27.331" fx="10.451" fy="27.331" r="7" gradientTransform="matrix(2.625 2.74436 -.4329 2.197 -4.976 -64.938)" gradientUnits="userSpaceOnUse"/><radialGradient xlink:href="#f" id="n" cx="24" cy="38.5" fx="24" fy="38.5" r="6" gradientTransform="matrix(2.91667 0 0 1.08333 -46.5 -.208)" gradientUnits="userSpaceOnUse"/><radialGradient xlink:href="#c" id="q" gradientUnits="userSpaceOnUse" gradientTransform="matrix(.55172 0 0 .24138 11.034 35.793)" cx="23.5" cy="19.5" fx="23.5" fy="19.5" r="14.5"/><radialGradient xlink:href="#g" id="G" gradientUnits="userSpaceOnUse" gradientTransform="matrix(.6 0 0 1.16667 .2 -5.842)" cx="23" cy="28.5" fx="23" fy="28.5" r="3"/><radialGradient xlink:href="#g" id="I" gradientUnits="userSpaceOnUse" gradientTransform="matrix(.6 0 0 1.16667 18.2 -5.75)" cx="23" cy="28.5" fx="23" fy="28.5" r="3"/><radialGradient xlink:href="#g" id="E" gradientUnits="userSpaceOnUse" gradientTransform="matrix(1 0 0 1.55556 0 -13.833)" cx="23" cy="28.5" fx="23" fy="28.5" r="3"/><radialGradient xlink:href="#a" id="v" gradientUnits="userSpaceOnUse" gradientTransform="matrix(1.42857 2.25867 -1.85301 1.61673 33.347 -44.631)" cx="13.071" cy="21.094" fx="13.071" fy="21.094" r="15.5"/><radialGradient xlink:href="#j" id="A" cx="3.5" cy="16.969" fx="3.5" fy="16.969" r="3.048" gradientTransform="matrix(.52907 1.26976 -1.31246 .78747 23.92 -1.007)" gradientUnits="userSpaceOnUse"/><radialGradient xlink:href="#j" id="B" gradientUnits="userSpaceOnUse" gradientTransform="matrix(.52907 1.26976 -1.31246 .78747 23.92 -1.007)" cx="3.5" cy="16.969" fx="3.5" fy="16.969" r="3.048"/><radialGradient xlink:href="#j" id="C" gradientUnits="userSpaceOnUse" gradientTransform="matrix(.52907 1.26976 -1.31246 .78747 23.92 -1.007)" cx="3.5" cy="16.969" fx="3.5" fy="16.969" r="3.048"/><radialGradient xlink:href="#j" id="D" gradientUnits="userSpaceOnUse" gradientTransform="matrix(.52907 1.26976 -1.31246 .78747 23.92 -1.007)" cx="3.5" cy="16.969" fx="3.5" fy="16.969" r="3.048"/><radialGradient xlink:href="#i" id="s" gradientUnits="userSpaceOnUse" gradientTransform="matrix(.35672 .45977 -.56559 .72898 16.265 4.506)" cx="13.819" cy="8.88" fx="13.819" fy="8.88" r="14.5"/></defs><g style="display:inline"><path style="opacity:.6;color:#000;fill:url(#n);fill-opacity:1;fill-rule:evenodd;stroke:none;stroke-width:.48304588px;marker:none;visibility:visible;display:inline;overflow:visible;enable-background:accumulate" d="M41 41.5c0 3.588-7.84 6.5-17.5 6.5S6 45.088 6 41.5 13.84 35 23.5 35 41 37.912 41 41.5z"/><path style="color:#000;fill:url(#o);fill-opacity:1;fill-rule:evenodd;stroke:#c4a000;stroke-width:.9999997px;stroke-linecap:butt;stroke-linejoin:miter;stroke-miterlimit:4;stroke-opacity:1;stroke-dashoffset:0;marker:none;visibility:visible;display:inline;overflow:visible;enable-background:accumulate" d="M37.5 40.5c0 2.76-6.496 5-14.5 5s-14.5-2.24-14.5-5 6.496-5 14.5-5 14.5 2.24 14.5 5z"/><path style="color:#000;fill:none;stroke:url(#p);stroke-width:.99999988px;stroke-linecap:butt;stroke-linejoin:miter;stroke-miterlimit:4;stroke-opacity:1;stroke-dashoffset:0;marker:none;visibility:visible;display:inline;overflow:visible;enable-background:accumulate" d="M36.5 40.046c0 2.459-6.048 4.454-13.5 4.454S9.5 42.505 9.5 40.046c0-2.459 6.048-4.454 13.5-4.454s13.5 1.995 13.5 4.454z"/></g><g style="display:inline"><path style="opacity:.2;color:#000;fill:url(#q);fill-opacity:1;fill-rule:evenodd;stroke:none;stroke-width:1px;marker:none;visibility:visible;display:inline;overflow:visible;enable-background:accumulate" d="M32 40.5c0 1.932-3.584 3.5-8 3.5s-8-1.568-8-3.5 3.584-3.5 8-3.5 8 1.568 8 3.5z"/><path style="color:#000;fill:#c4a000;fill-opacity:1;fill-rule:evenodd;stroke:none;stroke-width:1.38169873px;marker:none;visibility:visible;display:inline;overflow:visible;enable-background:accumulate" d="M30 39c0 1.656-3.136 3-7 3s-7-1.344-7-3 3.136-3 7-3 7 1.344 7 3z"/></g><g style="display:inline"><g style="display:inline"><path style="color:#000;fill:url(#r);fill-opacity:1;fill-rule:evenodd;stroke:#c4a000;stroke-width:.9999997px;stroke-linecap:butt;stroke-linejoin:miter;stroke-miterlimit:4;stroke-opacity:1;stroke-dashoffset:0;marker:none;visibility:visible;display:inline;overflow:visible;enable-background:accumulate" d="M22.676 13.5c-7.6 0-13.769 3.13-13.769 6.994 0 1.016-.152 3.176.112 5.708-2.489-.959-2.486-3.114-2.704-5.677H2.903C3.924 33.746 13.733 39.321 22.676 39.5c3.8 0 8.523-1.031 11.456-6.053s2.313-11.02 2.313-12.953c0-3.864-6.168-6.994-13.769-6.994z"/></g><g style="display:inline"><path style="opacity:.6;color:#000;fill:url(#s);fill-opacity:1;fill-rule:evenodd;stroke:none;stroke-width:.91345936px;marker:none;visibility:visible;display:inline;overflow:visible;enable-background:accumulate" d="M19 19c0 2.76 11.4 5 4.5 5S11 21.76 11 19s5.6-5 12.5-5-4.5 2.24-4.5 5z"/><path style="opacity:.6;color:#000;fill:url(#t);fill-opacity:1;fill-rule:evenodd;stroke:none;stroke-width:1px;marker:none;visibility:visible;display:inline;overflow:visible;enable-background:accumulate" d="M10.625 19c0 .916-.767 5.76-.625 8 .071 1.12-4.996-1.572-4.063-5 .39-1.433-2.119-1.428-2.098-.429.179 8.42 7.11 13.965 11.071 15.253C16.441 37.32 18.711 38 20 38l4-15c-4.448 0-12.238-1.618-13.375-4z"/></g><g style="display:inline"><path style="color:#000;fill:none;stroke:url(#u);stroke-width:.99999994;stroke-linecap:butt;stroke-linejoin:miter;stroke-miterlimit:4;stroke-opacity:1;stroke-dasharray:none;stroke-dashoffset:0;marker:none;visibility:visible;display:inline;overflow:visible;enable-background:accumulate" d="M34.5 18.5c0 2.208-5.152 4-11.5 4s-11.5-1.792-11.5-4 5.152-4 11.5-4 11.5 1.792 11.5 4z"/></g><g style="display:inline"><path d="M35.5 18.978c0 2.496-5.6 4.522-12.5 4.522s-12.5-2.026-12.5-4.522c0-2.496 5.6-4.521 12.5-4.521s12.5 2.025 12.5 4.521z" style="color:#000;fill:none;stroke:#c4a000;stroke-width:1;stroke-linecap:butt;stroke-linejoin:miter;stroke-miterlimit:4;stroke-opacity:1;stroke-dasharray:none;stroke-dashoffset:0;marker:none;visibility:visible;display:inline;overflow:visible;enable-background:accumulate"/></g><g style="display:inline"><path style="color:#000;fill:none;stroke:url(#v);stroke-width:.99999988px;stroke-linecap:butt;stroke-linejoin:miter;stroke-miterlimit:4;stroke-opacity:1;stroke-dashoffset:0;marker:none;visibility:visible;display:inline;overflow:visible;enable-background:accumulate" d="M22.726 14.5c-7.024 0-12.799 2.812-12.799 6.38l.002 6.727c-2.685-.692-4.3-1.888-4.437-5.357-.628.036-.976-.156-1.35.013 1.539 10.45 9.634 16 18.584 16.237 3.512 0 7.89-.957 10.6-5.594 2.71-4.636 2.12-10.153 2.12-11.937 0-3.568-5.696-6.469-12.72-6.469z"/></g><g style="display:inline"><path style="color:#000;fill:#816a24;fill-opacity:1;fill-rule:evenodd;stroke:#c4a000;stroke-width:1.22474467999999992px;stroke-linecap:butt;stroke-linejoin:miter;stroke-miterlimit:4;stroke-opacity:1;stroke-dasharray:none;stroke-dashoffset:0;marker:none;visibility:visible;display:inline;overflow:visible;enable-background:accumulate" d="M5 20.5a2 1.5 0 1 1-4 0 2 1.5 0 1 1 4 0z" transform="matrix(1 0 0 .66667 1.5 6.833)"/></g></g><g style="display:inline"><path style="color:#000;fill:#c4a000;fill-opacity:1;fill-rule:evenodd;stroke:#edd400;stroke-width:.68313003px;stroke-linecap:butt;stroke-linejoin:miter;stroke-miterlimit:4;stroke-opacity:1;stroke-dasharray:none;stroke-dashoffset:0;marker:none;visibility:visible;display:inline;overflow:visible;enable-background:accumulate" d="M26 17.5a3.5.5 0 1 1-7 0 3.5.5 0 1 1 7 0z" transform="matrix(.71429 0 0 3 6.929 -34.5)"/><path style="opacity:.1;color:#000;fill:url(#w);fill-opacity:1;fill-rule:evenodd;stroke:none;stroke-width:1px;marker:none;visibility:visible;display:inline;overflow:visible;enable-background:accumulate" d="M28 18c0 1.104-2.016 2-4.5 2s-4.5-.896-4.5-2 2.016-2 4.5-2 4.5.896 4.5 2z"/><path style="color:#000;fill:url(#x);fill-opacity:1;fill-rule:evenodd;stroke:#c4a000;stroke-width:1px;stroke-linecap:butt;stroke-linejoin:miter;stroke-miterlimit:4;stroke-opacity:1;stroke-dashoffset:0;marker:none;visibility:visible;display:inline;overflow:visible;enable-background:accumulate" d="M26.5 14c0-1.38-1.568-2.5-3.5-2.5s-3.5 1.12-3.5 2.5 1.568 4.5 3.5 4.5 3.5-3.12 3.5-4.5z"/><path style="color:#000;fill:none;stroke:url(#y);stroke-width:.99999994px;stroke-linecap:butt;stroke-linejoin:miter;stroke-miterlimit:4;stroke-opacity:1;stroke-dashoffset:0;marker:none;visibility:visible;display:inline;overflow:visible;enable-background:accumulate" d="M25.5 14.286c0-.986-1.12-1.786-2.5-1.786s-2.5.8-2.5 1.786c0 .985 1.12 3.214 2.5 3.214s2.5-2.229 2.5-3.214z"/></g><g style="display:inline"><path style="fill:#edd400;fill-opacity:1;stroke:#c4a000;stroke-width:.99999988;stroke-linecap:round;stroke-linejoin:round;stroke-miterlimit:4;stroke-opacity:1;stroke-dashoffset:0;display:inline" d="M41 10.5c-3.601 0-5.643 3.345-5.643 6.946l1 2.358c0-2.966 1.846-6.393 4.893-6.393 3.047 0 4.16 2.467 4.25 5.433v9.062c-.378 4.71-7.385 5.64-11.063 6.344-.447.655-1.462 1.229-1.973 1.75 4.874-1.32 14.52-1.387 15.036-8V17c-.268-3.78-2.899-6.5-6.5-6.5z"/><path style="opacity:.8;fill:none;stroke:url(#z);stroke-width:1;stroke-linecap:round;stroke-linejoin:round;stroke-miterlimit:4;stroke-opacity:1;stroke-dasharray:none;stroke-dashoffset:0;display:inline" d="M35.91 17.34c1.84-7.465 10.34-5.947 10.608.66v10.804c-.357 2.857-4.714 5.017-11.714 6.017"/></g><g style="display:inline"><path style="color:#000;fill:url(#A);fill-opacity:1;fill-rule:evenodd;stroke:none;stroke-width:1.09544492px;marker:none;visibility:visible;display:inline;overflow:visible;enable-background:accumulate" d="M7 18a2.5 3 0 1 1-5 0 2.5 3 0 1 1 5 0z" transform="matrix(.8 0 0 .66667 .4 6)"/><path transform="matrix(1.8 0 0 1.5 -1.6 -21.5)" d="M7 18a2.5 3 0 1 1-5 0 2.5 3 0 1 1 5 0z" style="color:#000;fill:url(#B);fill-opacity:1;fill-rule:evenodd;stroke:none;stroke-width:.54772246px;marker:none;visibility:visible;display:inline;overflow:visible;enable-background:accumulate"/><path style="color:#000;fill:url(#C);fill-opacity:1;fill-rule:evenodd;stroke:none;stroke-width:.6846531px;marker:none;visibility:visible;display:inline;overflow:visible;enable-background:accumulate" d="M7 18a2.5 3 0 1 1-5 0 2.5 3 0 1 1 5 0z" transform="matrix(1.4 0 0 1.16667 -1.8 -10.5)"/><path transform="matrix(1 0 0 .83333 1 -.5)" d="M7 18a2.5 3 0 1 1-5 0 2.5 3 0 1 1 5 0z" style="color:#000;fill:url(#D);fill-opacity:1;fill-rule:evenodd;stroke:none;stroke-width:.91287076px;marker:none;visibility:visible;display:inline;overflow:visible;enable-background:accumulate"/><path style="color:#000;fill:none;stroke:#babdb6;stroke-width:.99999994px;stroke-linecap:butt;stroke-linejoin:miter;stroke-miterlimit:4;stroke-opacity:1;stroke-dasharray:none;stroke-dashoffset:0;marker:none;visibility:visible;display:inline;overflow:visible;enable-background:accumulate" d="M6.5.5c-2.76 0-5 2.24-5 5 0 .705.174 1.36.438 1.969C1.067 8.203.5 9.274.5 10.5c0 1.503.836 2.785 2.063 3.469a2.886 2.886 0 0 0-.063.531c0 .473.117.914.313 1.313A2.487 2.487 0 0 0 1.5 18a2.5 2.5 0 0 0 5 0c0-.229-.036-.445-.094-.656C7.613 16.955 8.5 15.835 8.5 14.5c0-.693-.23-1.336-.625-1.844.394-.62.625-1.368.625-2.156 0-.139-.049-.271-.063-.406C10.232 9.334 11.5 7.57 11.5 5.5c0-2.76-2.24-5-5-5z"/><path style="color:#000;fill:none;stroke:#fff;stroke-width:.83333319px;stroke-linecap:butt;stroke-linejoin:miter;stroke-miterlimit:4;stroke-opacity:1;stroke-dasharray:none;stroke-dashoffset:0;marker:none;visibility:visible;display:inline;overflow:visible;enable-background:accumulate" d="M6.5 1.438A4.073 4.073 0 0 0 2.437 5.5c0 .838.282 1.604.72 2.25a3.058 3.058 0 0 0-1.72 2.75c0 1.42.971 2.59 2.282 2.938a2.07 2.07 0 0 0-.313 1.062c0 1.15.944 2.094 2.094 2.094s2.094-.944 2.094-2.094c0-.76-.423-1.417-1.032-1.781.603-.56 1-1.333 1-2.219 0-.373-.065-.732-.187-1.063 1.81-.403 3.188-2.005 3.188-3.937A4.073 4.073 0 0 0 6.5 1.437zM4 16.405A1.59 1.59 0 0 0 2.406 18c0 .883.71 1.594 1.594 1.594A1.59 1.59 0 0 0 5.594 18 1.59 1.59 0 0 0 4 16.406z"/></g><g style="display:inline"><path d="m23 26.5-2.5 4 2.5 4 2.5-4-2.5-4z" style="fill:url(#E);fill-opacity:1;stroke:#a40000;stroke-width:.99999988;stroke-linecap:round;stroke-linejoin:miter;stroke-miterlimit:4;stroke-opacity:1;stroke-dashoffset:0"/><path d="M23 27.167 21.333 30.5 23 33.833v-6.666z" style="fill:url(#F);fill-opacity:1;stroke:none"/><path style="fill:url(#G);fill-opacity:1;stroke:#a40000;stroke-width:.99999994;stroke-linecap:round;stroke-linejoin:miter;stroke-miterlimit:4;stroke-opacity:1;stroke-dashoffset:0" d="m14 24.408-1.5 3 1.5 3 1.5-3-1.5-3z"/><path style="fill:url(#H);fill-opacity:1;stroke:none" d="m14 24.908-1 2.5 1 2.5v-5z"/><path style="fill:url(#I);fill-opacity:1;stroke:#a40000;stroke-width:.99999994;stroke-linecap:round;stroke-linejoin:miter;stroke-miterlimit:4;stroke-opacity:1;stroke-dashoffset:0" d="m32 24.5-1.5 3 1.5 3 1.5-3-1.5-3z"/><path style="fill:url(#J);fill-opacity:1;stroke:none" d="m32 25-1 2.5 1 2.5v-5z"/></g></svg>
